<?xml version="1.0" encoding="UTF-8"?>
<svg width="522px" height="500px" viewBox="0 0 522 500" version="1.1" xmlns="http://www.w3.org/2000/svg" xmlns:xlink="http://www.w3.org/1999/xlink">
    <!-- Generator: Sketch 51.1 (57501) - http://www.bohemiancoding.com/sketch -->
    <title>Shape</title>
    <desc>Created with Sketch.</desc>
    <defs></defs>
    <g id="Page-1" stroke="none" stroke-width="1" fill="none" fill-rule="evenodd">
        <path d="M413.042607,500 C408.607825,500 404.194781,498.652174 400.390433,495.934783 L260.868694,396.130435 L121.346955,495.956522 C113.564347,501.5 103.064347,501.326087 95.47739,495.521739 C87.8686943,489.673913 84.9991291,479.586957 88.3469552,470.608696 L147.694781,312.326087 L9.10782478,213.347826 C1.41217261,207.847826 -1.84869696,198.021739 1.04260739,189.021739 C3.91217261,180.021739 12.2817378,173.913043 21.7382596,173.913043 L180.586086,173.913043 L240.499129,14.1086957 C243.694781,5.63043478 251.803477,-3.55271368e-15 260.868694,-3.55271368e-15 C269.933912,-3.55271368e-15 278.042607,5.63043478 281.23826,14.1086957 L341.151303,173.913043 L499.999129,173.913043 C509.455651,173.913043 517.803477,180.021739 520.694781,189.021739 C523.586086,198.021739 520.303477,207.847826 512.629564,213.347826 L374.042607,312.326087 L433.390433,470.608696 C436.73826,479.565217 433.846955,489.673913 426.259999,495.521739 C422.390433,498.5 417.71652,500 413.042607,500 Z M260.868694,347.652174 C265.303477,347.652174 269.73826,349 273.520868,351.717391 L367.607825,419.043478 L327.455651,312 C323.999129,302.76087 327.173042,292.391304 335.173042,286.673913 L432.173042,217.391304 L326.086086,217.391304 C317.020868,217.391304 308.912173,211.76087 305.71652,203.282609 L260.868694,83.6521739 L216.020868,203.282609 C212.825216,211.76087 204.71652,217.391304 195.651303,217.391304 L89.5860857,217.391304 L186.542607,286.673913 C194.564347,292.391304 197.71652,302.76087 194.259999,312 L154.129564,419.021739 L248.21652,351.695652 C251.999129,349.021739 256.433912,347.652174 260.868694,347.652174 Z" id="Shape" fill="#FFFFFF" fill-rule="nonzero"></path>
    </g>
</svg>